<svg xmlns="http://www.w3.org/2000/svg" viewBox="0 0 64 64" width="512" height="512"><g id="Cheque"><path d="M61,26H52a1,1,0,0,0,0,2h8V52H10V28H39a1,1,0,0,0,0-2H3a1,1,0,0,0-1,1V61a1,1,0,0,0,1,1H61a1,1,0,0,0,1-1V27A1,1,0,0,0,61,26ZM60,54v2H10V54ZM4,28H8V60H4ZM60,60H10V58H60Z"/><path d="M12,40A10,10,0,1,0,22,30,10.011,10.011,0,0,0,12,40Zm18,0a8,8,0,1,1-8-8A8.009,8.009,0,0,1,30,40Z"/><path d="M21,33l-.006,2A2,2,0,0,0,19,37v2a2,2,0,0,0,2,2h2v2H21V42H19v1a2,2,0,0,0,1.994,2L21,47,23,47l-.006-2H23a2,2,0,0,0,2-2V41a2,2,0,0,0-2-2H21V37h2v1h2V37a2,2,0,0,0-2-2h-.006L23,33Z"/><path d="M36.777,36.527l-.767,5.33a1,1,0,0,0,1.608.929l4.233-3.33a1.014,1.014,0,0,0,.248-.286L57.6,12.323l.866.5-4,6.928a1,1,0,1,0,1.732,1l4.5-7.794a1,1,0,0,0-.366-1.366l-1.731-1,2-3.465a3,3,0,0,0-5.2-3L36.9,36.17A1.026,1.026,0,0,0,36.777,36.527Zm20.357-31.4a1,1,0,0,1,1.732,1l-2,3.464-1.732-1ZM38.729,37l15.405-26.68,1.732,1L40.463,38l-2.117,1.665Z"/><path d="M39.5,48l-1.1-1.467a3,3,0,0,0-4.8,0L32.2,48.4a1,1,0,1,0,1.6,1.2l1.4-1.867a1.03,1.03,0,0,1,1.6,0L38.2,49.6a1,1,0,0,0,.8.4h5a1,1,0,0,0,0-2Z"/><path d="M56,32H49a1,1,0,0,0,0,2h7a1,1,0,0,0,0-2Z"/><path d="M56,36H47a1,1,0,0,0,0,2h9a1,1,0,0,0,0-2Z"/><path d="M57,41a1,1,0,0,0-1-1H45a1,1,0,0,0,0,2H56A1,1,0,0,0,57,41Z"/><path d="M48,48a1,1,0,0,0,0,2h1a1,1,0,0,0,0-2Z"/></g></svg>
